<mxfile host="65bd71144e">
    <diagram id="M1FbSGCLvGXNXDGKe243" name="Page-1">
        <mxGraphModel dx="1228" dy="760" grid="1" gridSize="10" guides="1" tooltips="1" connect="1" arrows="1" fold="1" page="1" pageScale="1" pageWidth="827" pageHeight="1169" math="0" shadow="0">
            <root>
                <mxCell id="0"/>
                <mxCell id="1" parent="0"/>
                <mxCell id="4" value="Discord" style="ellipse;shape=cloud;whiteSpace=wrap;html=1;fontSize=18;" vertex="1" parent="1">
                    <mxGeometry x="380" y="440" width="120" height="80" as="geometry"/>
                </mxCell>
                <mxCell id="6" value="Platformatic Service" style="rounded=0;whiteSpace=wrap;html=1;verticalAlign=top;fontSize=18;fillColor=#dae8fc;strokeColor=#6c8ebf;" vertex="1" parent="1">
                    <mxGeometry x="40" y="400" width="210" height="170" as="geometry"/>
                </mxCell>
                <mxCell id="9" value="Fastify Plugin" style="rounded=0;whiteSpace=wrap;html=1;verticalAlign=top;fontSize=16;" vertex="1" parent="1">
                    <mxGeometry x="50" y="440" width="190" height="120" as="geometry"/>
                </mxCell>
                <mxCell id="10" value="discord.js" style="rounded=1;whiteSpace=wrap;html=1;fontSize=15;fillColor=#ffe6cc;strokeColor=#d79b00;" vertex="1" parent="1">
                    <mxGeometry x="70" y="480" width="150" height="60" as="geometry"/>
                </mxCell>
                <mxCell id="7" style="edgeStyle=entityRelationEdgeStyle;html=1;strokeWidth=3;fontSize=18;startArrow=classic;startFill=1;" edge="1" parent="1" source="10" target="4">
                    <mxGeometry relative="1" as="geometry"/>
                </mxCell>
                <mxCell id="8" value="ws:connection" style="edgeLabel;html=1;align=center;verticalAlign=middle;resizable=0;points=[];fontSize=14;" vertex="1" connectable="0" parent="7">
                    <mxGeometry x="0.1014" y="2" relative="1" as="geometry">
                        <mxPoint as="offset"/>
                    </mxGeometry>
                </mxCell>
            </root>
        </mxGraphModel>
    </diagram>
</mxfile>